<svg xmlns="http://www.w3.org/2000/svg" id="Capa_2" data-name="Capa 2" viewBox="0 0 103.11 22.02"><defs><style>      .cls-1 {        fill: #706f6f;      }      .cls-2 {        fill: #fff;      }      .cls-3 {        fill: #e3101a;      }    </style></defs><g id="Capa_1-2" data-name="Capa 1"><g><polygon class="cls-3" points="0 11.03 11.03 0 22.02 10.99 10.99 22.02 0 11.03 0 11.03"></polygon><path class="cls-2" d="M16.58,6.67v1.51h-6.89c-1.87,0-2.7,1.4-2.69,2.81.01,1.39.84,2.79,2.69,2.79h3.96v-1.93h-3.87v-1.64h6.8v5.28h-7.21c-3.62-.01-5.55-1.72-5.55-4.48,0-2.38,1.6-4.38,6.27-4.38l6.48.04h0Z"></path><path class="cls-1" d="M32.7,15.53h-4.16c-.59,0-1.05-.04-1.4-.13-.75-.19-1.35-.56-1.8-1.11-.59-.74-.89-1.78-.89-3.11,0-1.4.26-2.48.79-3.23.68-.98,1.83-1.46,3.43-1.46h4.03v1.53s-4.03,0-4.03,0c-.75,0-1.3.25-1.63.75-.35.5-.52,1.23-.52,2.18s.15,1.66.44,2.14c.35.56.92.84,1.71.84h2.14v-2.16h-2.5v-1.57h4.4s0,5.34,0,5.34h0Z"></path><path class="cls-1" d="M41.06,15.53h-3.16c-1.3,0-2.3-.34-3.01-1.01-.78-.73-1.16-1.85-1.16-3.34,0-1.75.38-2.99,1.13-3.72.66-.65,1.69-.97,3.1-.97h3.11v1.53h-3.09c-.68,0-1.2.18-1.55.53s-.54.91-.54,1.65h5.18v1.54h-5.22c0,.84.2,1.44.6,1.8.34.31.85.47,1.54.47h3.09v1.53h0Z"></path><path class="cls-1" d="M50.91,15.53h-2.05l-2-3.55h-2.25v3.55h-1.84s0-9.05,0-9.05h4.63c1.04,0,1.8.19,2.29.58.55.43.83,1.15.83,2.14,0,.67-.13,1.21-.4,1.62-.3.46-.76.76-1.39.91l2.18,3.8h0ZM48.67,9.23c0-.44-.14-.74-.41-.91-.28-.16-.72-.25-1.32-.25h-2.31s0,2.33,0,2.33h2.32c.61,0,1.01-.05,1.22-.14.34-.16.51-.5.51-1.04h0Z"></path><polygon class="cls-1" points="54.09 15.58 52.16 15.58 52.16 6.54 54.09 6.54 54.09 15.58 54.09 15.58"></polygon><polygon class="cls-1" points="66.09 15.53 64.43 15.53 64.43 8.48 62.1 15.53 60.13 15.53 57.72 8.41 57.72 15.53 56.02 15.53 56.02 6.48 58.77 6.48 61.06 13.52 63.39 6.48 66.09 6.48 66.09 15.53 66.09 15.53"></polygon><path class="cls-1" d="M75.95,9.42c0,1.19-.45,2.03-1.35,2.5-.55.29-1.24.44-2.07.44h-.23s-.09,0-.13-.01h-2.31s0,3.18,0,3.18h-1.85V6.48s4.08,0,4.08,0c1.41,0,2.41.23,2.99.7.58.47.87,1.21.87,2.24h0ZM73.9,9.42c0-.51-.15-.86-.44-1.06-.3-.19-.77-.28-1.41-.28h-2.19v2.7h2.29c1.17,0,1.75-.45,1.75-1.35h0Z"></path><path class="cls-1" d="M85.65,11c0,1.71-.46,2.96-1.37,3.75-.75.65-1.79.97-3.1.97-.68,0-1.28-.08-1.78-.23-.79-.24-1.4-.67-1.85-1.3-.57-.79-.85-1.86-.85-3.21,0-1.3.23-2.31.7-3.06.39-.61.96-1.05,1.71-1.32.56-.2,1.24-.3,2.05-.3,1.28,0,2.27.25,2.98.74.59.42,1.01,1.02,1.26,1.8.17.57.26,1.29.26,2.16h0ZM83.64,11.02c0-1.18-.24-2.03-.71-2.55-.4-.43-.99-.65-1.76-.65s-1.38.26-1.82.79c-.44.53-.66,1.32-.66,2.37s.12,1.72.36,2.18c.37.71,1.08,1.06,2.11,1.06.91,0,1.56-.29,1.96-.88.35-.51.52-1.28.52-2.32h0Z"></path><path class="cls-1" d="M95.09,15.53h-2.05s-2-3.55-2-3.55h-2.25v3.55s-1.84,0-1.84,0V6.48s4.63,0,4.63,0c1.04,0,1.8.19,2.29.58.55.43.83,1.15.83,2.14,0,.67-.13,1.21-.4,1.62-.3.46-.76.76-1.39.91l2.18,3.8h0ZM92.85,9.23c0-.44-.14-.74-.41-.91-.28-.16-.72-.25-1.32-.25h-2.31v2.33h2.32c.61,0,1.01-.05,1.22-.14.34-.16.51-.5.51-1.04h0Z"></path><polygon class="cls-1" points="103.11 8.05 100.22 8.05 100.22 15.53 98.28 15.53 98.28 8.05 95.41 8.05 95.41 6.51 103.11 6.51 103.11 8.05 103.11 8.05"></polygon></g></g></svg>